<svg width="17" height="16" viewBox="0 0 17 16" fill="none" xmlns="http://www.w3.org/2000/svg">
<path d="M12.875 9.75H10.25C9.76875 9.75 9.375 9.35625 9.375 8.875C9.375 8.39375 9.76875 8 10.25 8H12.875C12.875 8 15.5 5.07422 15.5 3.625C15.5 2.17578 14.3242 1 12.875 1C11.4258 1 10.25 2.17578 10.25 3.625C10.25 4.32227 10.857 5.35859 11.4887 6.25H10.25C8.80352 6.25 7.625 7.42852 7.625 8.875C7.625 10.3215 8.80352 11.5 10.25 11.5H12.875C13.3562 11.5 13.75 11.8938 13.75 12.375C13.75 12.8562 13.3562 13.25 12.875 13.25H6.57227C6.13477 13.9281 5.64805 14.5543 5.27891 15H12.875C14.3215 15 15.5 13.8215 15.5 12.375C15.5 10.9285 14.3215 9.75 12.875 9.75ZM12.875 2.75C13.359 2.75 13.75 3.14102 13.75 3.625C13.75 4.10898 13.359 4.5 12.875 4.5C12.391 4.5 12 4.10898 12 3.625C12 3.14102 12.391 2.75 12.875 2.75ZM4.125 8C2.67578 8 1.5 9.17578 1.5 10.625C1.5 12.0742 4.125 15 4.125 15C4.125 15 6.75 12.0742 6.75 10.625C6.75 9.17578 5.57422 8 4.125 8ZM4.125 11.5C3.64102 11.5 3.25 11.109 3.25 10.625C3.25 10.141 3.64102 9.75 4.125 9.75C4.60898 9.75 5 10.141 5 10.625C5 11.109 4.60898 11.5 4.125 11.5Z" fill="#738047"/>
</svg>
