<svg width="10" height="10" viewBox="0 0 10 10" fill="none" xmlns="http://www.w3.org/2000/svg">
<g clip-path="url(#clip0_580_2877)">
<path d="M5.93751 8.125H4.68752C4.60464 8.125 4.52515 8.15792 4.46654 8.21653C4.40794 8.27513 4.37502 8.35462 4.37502 8.4375V9.0625C4.37502 9.14538 4.40794 9.22487 4.46654 9.28347C4.52515 9.34208 4.60464 9.375 4.68752 9.375H5.93751C6.0204 9.375 6.09988 9.34208 6.15849 9.28347C6.21709 9.22487 6.25001 9.14538 6.25001 9.0625V8.4375C6.25001 8.35462 6.21709 8.27513 6.15849 8.21653C6.09988 8.15792 6.0204 8.125 5.93751 8.125ZM3.43752 6.875H2.50002V0.9375C2.50002 0.85462 2.46709 0.775134 2.40849 0.716529C2.34988 0.657924 2.2704 0.625 2.18752 0.625H1.56252C1.47963 0.625 1.40015 0.657924 1.34154 0.716529C1.28294 0.775134 1.25002 0.85462 1.25002 0.9375V6.875H0.312515C0.0353666 6.875 -0.104868 7.21172 0.0920073 7.4084L1.65451 9.2834C1.71311 9.34196 1.79256 9.37486 1.87541 9.37486C1.95825 9.37486 2.0377 9.34196 2.0963 9.2834L3.6588 7.4084C3.85451 7.21211 3.71525 6.875 3.43752 6.875ZM8.43752 3.125H4.68752C4.60464 3.125 4.52515 3.15792 4.46654 3.21653C4.40794 3.27513 4.37502 3.35462 4.37502 3.4375V4.0625C4.37502 4.14538 4.40794 4.22487 4.46654 4.28347C4.52515 4.34208 4.60464 4.375 4.68752 4.375H8.43752C8.5204 4.375 8.59988 4.34208 8.65849 4.28347C8.71709 4.22487 8.75002 4.14538 8.75002 4.0625V3.4375C8.75002 3.35462 8.71709 3.27513 8.65849 3.21653C8.59988 3.15792 8.5204 3.125 8.43752 3.125ZM7.18751 5.625H4.68752C4.60464 5.625 4.52515 5.65792 4.46654 5.71653C4.40794 5.77513 4.37502 5.85462 4.37502 5.9375V6.5625C4.37502 6.64538 4.40794 6.72487 4.46654 6.78347C4.52515 6.84208 4.60464 6.875 4.68752 6.875H7.18751C7.2704 6.875 7.34988 6.84208 7.40849 6.78347C7.46709 6.72487 7.50001 6.64538 7.50001 6.5625V5.9375C7.50001 5.85462 7.46709 5.77513 7.40849 5.71653C7.34988 5.65792 7.2704 5.625 7.18751 5.625ZM9.68752 0.625H4.68752C4.60464 0.625 4.52515 0.657924 4.46654 0.716529C4.40794 0.775134 4.37502 0.85462 4.37502 0.9375V1.5625C4.37502 1.64538 4.40794 1.72487 4.46654 1.78347C4.52515 1.84208 4.60464 1.875 4.68752 1.875H9.68752C9.7704 1.875 9.84988 1.84208 9.90849 1.78347C9.96709 1.72487 10 1.64538 10 1.5625V0.9375C10 0.85462 9.96709 0.775134 9.90849 0.716529C9.84988 0.657924 9.7704 0.625 9.68752 0.625Z" fill="#738047"/>
</g>
<defs>
<clipPath id="clip0_580_2877">
<rect width="10" height="10" fill="white"/>
</clipPath>
</defs>
</svg>
