<svg width="18" height="18" viewBox="0 0 18 18" fill="none" xmlns="http://www.w3.org/2000/svg">
<path d="M14.7455 1.6875H3.25446C2.38937 1.6875 1.6875 2.38937 1.6875 3.25446V14.7455C1.6875 15.6106 2.38937 16.3125 3.25446 16.3125H14.7455C15.6106 16.3125 16.3125 15.6106 16.3125 14.7455V3.25446C16.3125 2.38937 15.6106 1.6875 14.7455 1.6875ZM9.52232 11.0893H7.95536V12.6562C7.95536 12.9435 7.72031 13.1786 7.43304 13.1786H6.38839C6.10112 13.1786 5.86607 12.9435 5.86607 12.6562V5.34375C5.86607 5.05647 6.10112 4.82143 6.38839 4.82143H9.52232C11.2492 4.82143 12.6562 6.22843 12.6562 7.95536C12.6562 9.68228 11.2492 11.0893 9.52232 11.0893ZM9.52232 6.91071H7.95536V9H9.52232C10.0969 9 10.567 8.52991 10.567 7.95536C10.567 7.3808 10.0969 6.91071 9.52232 6.91071Z" fill="#8C3046"/>
</svg>
