<svg width="38" height="51" viewBox="0 0 38 51" fill="none" xmlns="http://www.w3.org/2000/svg">
<ellipse cx="19" cy="48.0195" rx="9.82759" ry="2.98052" fill="#C5C5C5"/>
<path d="M18.8692 0C8.46528 0 0.000192097 8.55766 0.000192097 19.0634C-0.0682079 34.431 18.1521 47.1733 18.8692 47.6883C18.8692 47.6883 37.8065 34.431 37.7381 19.0753C37.7381 8.55767 29.273 0 18.8692 0ZM18.8692 28.613C13.6566 28.613 9.43468 24.3449 9.43468 19.0753C9.43468 13.8058 13.6566 9.53766 18.8692 9.53766C24.0817 9.53766 28.3036 13.8058 28.3036 19.0753C28.3036 24.3449 24.0817 28.613 18.8692 28.613Z" fill="#9A9A9A"/>
<ellipse cx="19" cy="19.2078" rx="12.4483" ry="12.5844" fill="white"/>
<!-- <path d="M12.971 19.3751L14.696 16.6151C15.011 16.0151 15.311 15.4001 15.581 14.8151H15.641C15.611 15.4601 15.551 16.4651 15.551 17.1101V19.3751H12.971ZM18.926 19.3751H17.606V12.8351H14.966L10.826 19.5551V21.0551H15.551V23.9351H17.606V21.0551H18.926V19.3751ZM23.904 24.1451C26.019 24.1451 27.804 22.9601 27.804 20.9201C27.804 19.4651 26.844 18.5351 25.584 18.1901V18.1151C26.769 17.6501 27.444 16.7801 27.444 15.5801C27.444 13.6751 25.989 12.6251 23.844 12.6251C22.539 12.6251 21.474 13.1501 20.514 13.9901L21.639 15.3401C22.299 14.7401 22.944 14.3651 23.739 14.3501C24.684 14.3651 25.224 14.8751 25.224 15.7451C25.224 16.7351 24.564 17.4401 22.524 17.4401V19.0301C24.939 19.0301 25.584 19.7051 25.584 20.8001C25.584 21.7901 24.819 22.3451 23.694 22.3451C22.689 22.3451 21.879 21.8501 21.219 21.2051L20.184 22.6001C20.964 23.4851 22.149 24.1451 23.904 24.1451Z" fill="#738047"/> -->
</svg>
