<svg width="13" height="12" viewBox="0 0 13 12" fill="none" xmlns="http://www.w3.org/2000/svg">
<g clip-path="url(#clip0_347_3340)">
<path d="M11.4506 8.16967L9.15364 7.18528C9.05552 7.14346 8.94647 7.13465 8.84291 7.16017C8.73934 7.18569 8.64687 7.24416 8.57941 7.32679L7.56221 8.56958C5.9658 7.81689 4.68106 6.53215 3.92837 4.93574L5.17116 3.91853C5.25395 3.8512 5.31254 3.75873 5.33808 3.65512C5.36361 3.5515 5.35469 3.44239 5.31267 3.3443L4.32828 1.04739C4.28216 0.941649 4.20059 0.855317 4.09763 0.803279C3.99468 0.75124 3.87679 0.736756 3.7643 0.762324L1.63145 1.25452C1.523 1.27956 1.42624 1.34063 1.35696 1.42775C1.28768 1.51487 1.24998 1.6229 1.25 1.73421C1.25 6.99455 5.51365 11.25 10.7658 11.25C10.8771 11.2501 10.9852 11.2124 11.0724 11.1431C11.1595 11.0738 11.2206 10.977 11.2457 10.8685L11.7379 8.7357C11.7633 8.62266 11.7485 8.5043 11.696 8.40099C11.6436 8.29769 11.5568 8.21589 11.4506 8.16967Z" fill="#A3651E"/>
</g>
<defs>
<clipPath id="clip0_347_3340">
<rect width="10.5" height="10.5" fill="white" transform="translate(1.25 0.75)"/>
</clipPath>
</defs>
</svg>
