<svg width="16" height="16" viewBox="0 0 16 16" fill="none" xmlns="http://www.w3.org/2000/svg">
<g clip-path="url(#clip0_347_3326)">
<path d="M12.8127 6.37503C12.4034 6.3734 12.012 6.45005 11.6518 6.59072L9.70983 3.41301C9.656 3.32492 9.58092 3.25224 9.49171 3.20184C9.40251 3.15144 9.30211 3.125 9.20003 3.125H7.60003C7.37911 3.125 7.20003 3.30687 7.20003 3.53125V3.9375C7.20003 4.16188 7.37911 4.34375 7.60003 4.34375H8.86626L9.23866 4.95312H6.40006V4.54688C6.40006 4.3225 6.22098 4.14062 6.00006 4.14062H3.81358C3.47756 4.14062 3.19416 4.4199 3.20018 4.7611C3.20598 5.09229 3.47208 5.35938 3.80006 5.35938H5.01821L4.28278 6.56594C3.94696 6.4433 3.58518 6.37594 3.20798 6.375C1.45236 6.37068 0.0103058 7.82257 5.584e-05 9.6056C-0.0103192 11.4094 1.42638 12.875 3.20006 12.875C4.69111 12.875 5.94401 11.8392 6.29923 10.4375H7.60006C7.70225 10.4375 7.80276 10.411 7.89204 10.3605C7.98132 10.31 8.05641 10.2371 8.11021 10.1489L10.2593 6.62307L10.6327 7.23414C9.99633 7.8295 9.59808 8.68346 9.60003 9.63196C9.60366 11.3797 11.0475 12.8579 12.7683 12.8748C14.5334 12.8922 15.9728 11.4579 15.9996 9.67571C16.0268 7.87447 14.5865 6.38203 12.8127 6.37503ZM4.66876 8.24812C4.91193 8.51546 5.08558 8.84888 5.15981 9.21875H4.07716L4.66876 8.24812ZM3.20006 11.6562C2.09726 11.6562 1.20006 10.745 1.20006 9.625C1.20006 8.50497 2.09726 7.59375 3.20006 7.59375C3.34678 7.59375 3.48971 7.61033 3.62753 7.64095L2.48991 9.50739C2.24288 9.9126 2.53033 10.4375 3.00006 10.4375H5.03256C4.72331 11.1542 4.01851 11.6562 3.20006 11.6562ZM7.26581 9.21875H6.37521C6.27621 8.41245 5.88631 7.698 5.31563 7.18684L5.93428 6.17188H9.12296L7.26581 9.21875ZM12.6922 11.6534C11.6663 11.5984 10.841 10.7471 10.8016 9.7045C10.7813 9.16822 10.9674 8.67572 11.2849 8.30134L12.3958 10.1189C12.5123 10.3096 12.7589 10.3682 12.9466 10.2499L13.2864 10.0356C13.4741 9.91732 13.5318 9.66687 13.4153 9.47624L12.3036 7.65718C12.4658 7.61499 12.6326 7.59369 12.8001 7.59378C13.9029 7.59378 14.8001 8.50499 14.8001 9.62503C14.8 10.7813 13.8438 11.7151 12.6922 11.6534Z" fill="#738047"/>
</g>
<defs>
<clipPath id="clip0_347_3326">
<rect width="16" height="16" fill="white"/>
</clipPath>
</defs>
</svg>
