<svg width="16" height="16" viewBox="0 0 16 16" fill="none" xmlns="http://www.w3.org/2000/svg">
<path d="M3.52391 4.97608L5.75754 5.9201C6.52732 3.84977 7.64337 2.25652 8.79813 1.50979C6.70078 1.38563 4.66862 2.44822 3.3616 4.34843C3.21526 4.56171 3.30341 4.8829 3.52391 4.97608ZM6.41685 6.19888L11.6335 8.40352C12.4158 5.32165 12.0426 2.5216 10.701 1.95489C10.5391 1.88633 10.3701 1.85332 10.1959 1.85332C8.92676 1.85358 7.39006 3.60957 6.41685 6.19888ZM12.4073 3.03626C12.5433 3.45012 12.6442 3.91477 12.696 4.43755C12.8216 5.70428 12.6649 7.18555 12.2815 8.67723L14.5263 9.62582C14.747 9.719 14.9924 9.53873 14.9981 9.26603C15.0488 6.83643 14.0813 4.50687 12.4073 3.03626ZM13.2499 12.8745H8.02311L9.44366 8.34284L8.12811 7.78679L6.53344 12.8743H1.35C1.15662 12.8743 1 13.0561 1 13.2808V14.0935C1 14.318 1.15662 14.5 1.35 14.5H13.2499C13.4432 14.5 13.5999 14.318 13.5999 14.0935V13.2808C13.5999 13.0563 13.4432 12.8745 13.2499 12.8745Z" fill="#738047"/>
</svg>
