<svg width="18" height="18" viewBox="0 0 18 18" fill="none" xmlns="http://www.w3.org/2000/svg">
<g clip-path="url(#clip0_61_8848)">
<path d="M1.6875 4.64062H16.3125C16.6232 4.64062 16.875 4.3888 16.875 4.07812V2.67188C16.875 2.3612 16.6232 2.10938 16.3125 2.10938H1.6875C1.37682 2.10938 1.125 2.3612 1.125 2.67188V4.07812C1.125 4.3888 1.37682 4.64062 1.6875 4.64062ZM1.6875 10.2656H16.3125C16.6232 10.2656 16.875 10.0138 16.875 9.70312V8.29688C16.875 7.9862 16.6232 7.73438 16.3125 7.73438H1.6875C1.37682 7.73438 1.125 7.9862 1.125 8.29688V9.70312C1.125 10.0138 1.37682 10.2656 1.6875 10.2656ZM1.6875 15.8906H16.3125C16.6232 15.8906 16.875 15.6388 16.875 15.3281V13.9219C16.875 13.6112 16.6232 13.3594 16.3125 13.3594H1.6875C1.37682 13.3594 1.125 13.6112 1.125 13.9219V15.3281C1.125 15.6388 1.37682 15.8906 1.6875 15.8906Z" fill="white"/>
</g>
<defs>
<clipPath id="clip0_61_8848">
<rect width="15.75" height="18" fill="white" transform="translate(1.125)"/>
</clipPath>
</defs>
</svg>
