<svg width="18" height="18" viewBox="0 0 18 18" fill="none" xmlns="http://www.w3.org/2000/svg">
<g clip-path="url(#clip0_580_679)">
<path d="M14.4143 7.1719C13.9538 7.17008 13.5135 7.25631 13.1083 7.41456L10.9236 3.83963C10.863 3.74053 10.7785 3.65877 10.6782 3.60207C10.5778 3.54538 10.4649 3.51562 10.35 3.51563H8.55003C8.30149 3.51563 8.10003 3.72023 8.10003 3.97266V4.42969C8.10003 4.68211 8.30149 4.88672 8.55003 4.88672H9.97454L10.3935 5.57227H7.20006V5.11523C7.20006 4.86281 6.9986 4.6582 6.75006 4.6582H4.29028C3.91225 4.6582 3.59343 4.97238 3.6002 5.35623C3.60673 5.72883 3.90609 6.0293 4.27506 6.0293H5.64548L4.81813 7.38668C4.44033 7.24871 4.03333 7.17293 3.60898 7.17188C1.6339 7.16702 0.0115941 8.80039 6.282e-05 10.8063C-0.0116091 12.8356 1.60468 14.4844 3.60006 14.4844C5.27749 14.4844 6.68701 13.3191 7.08663 11.7422H8.55006C8.66503 11.7422 8.7781 11.7124 8.87854 11.6555C8.97898 11.5987 9.06346 11.5168 9.12398 11.4175L11.5417 7.45095L11.9618 8.13841C11.2459 8.80819 10.7978 9.7689 10.8 10.836C10.8041 12.8021 12.4284 14.4651 14.3643 14.4842C16.3501 14.5037 17.9694 12.8902 17.9996 10.8852C18.0301 8.85878 16.4098 7.17979 14.4143 7.1719ZM5.25235 9.27913C5.52592 9.57989 5.72128 9.955 5.80478 10.3711H4.5868L5.25235 9.27913ZM3.60006 13.1133C2.35941 13.1133 1.35006 12.0882 1.35006 10.8281C1.35006 9.56809 2.35941 8.54297 3.60006 8.54297C3.76513 8.54297 3.92592 8.56162 4.08097 8.59607L2.80114 10.6958C2.52324 11.1517 2.84662 11.7422 3.37506 11.7422H5.66162C5.31372 12.5484 4.52082 13.1133 3.60006 13.1133ZM8.17403 10.3711H7.17211C7.06073 9.464 6.62209 8.66025 5.98008 8.08519L6.67607 6.94336H10.2633L8.17403 10.3711ZM14.2788 13.11C13.1246 13.0482 12.1961 12.0905 12.1518 10.9176C12.1289 10.3143 12.3383 9.76019 12.6955 9.339L13.9452 11.3838C14.0763 11.5983 14.3537 11.6642 14.5649 11.5311L14.9472 11.2901C15.1584 11.157 15.2233 10.8752 15.0922 10.6608L13.8416 8.61432C14.024 8.56687 14.2117 8.5429 14.4001 8.543C15.6407 8.543 16.6501 9.56812 16.6501 10.8282C16.65 12.129 15.5742 13.1795 14.2788 13.11Z" fill="#9A9A9A"/>
</g>
<defs>
<clipPath id="clip0_580_679">
<rect width="18" height="18" fill="white"/>
</clipPath>
</defs>
</svg>
